<svg width="465" height="709" viewBox="0 0 465 709" fill="none" xmlns="http://www.w3.org/2000/svg">
<path fill-rule="evenodd" clip-rule="evenodd" d="M608.556 354.394L585.048 356.781L566.19 358.792L551.05 360.537L538.925 362.101L529.287 363.549L521.73 364.93L515.945 366.285L511.691 367.65L508.785 369.053L507.082 370.521L506.472 372.079L506.87 373.75L508.208 375.555L510.437 377.518L513.515 379.659L517.408 382L522.086 384.561L527.521 387.362L533.682 390.422L540.534 393.758L548.034 397.382L556.13 401.305L564.755 405.533L573.832 410.063L583.265 414.889L592.942 419.993L602.737 425.352L612.507 430.929L622.096 436.681L631.343 442.553L640.078 448.484L648.137 454.404L655.362 460.239L661.609 465.913L666.758 471.352L670.713 476.486L673.411 481.249L674.821 485.59L674.949 489.467L673.833 492.852L671.543 495.734L668.176 498.113L663.85 500.007L658.699 501.442L652.867 502.459L646.504 503.105L639.754 503.434L632.759 503.502L625.652 503.371L618.552 503.099L611.565 502.745L604.786 502.365L598.293 502.012L592.151 501.735L586.414 501.579L581.123 501.585L576.309 501.791L571.995 502.23L568.195 502.932L564.918 503.925L562.166 505.233L559.938 506.877L558.227 508.877L557.023 511.25L556.311 514.008L556.076 517.164L556.294 520.724L556.942 524.692L557.988 529.067L559.398 533.843L561.131 539.005L563.139 544.533L565.368 550.398L567.756 556.559L570.234 562.965L572.725 569.553L575.144 576.249L577.4 582.964L579.399 589.598L581.041 596.042L582.23 602.176L582.87 607.877L582.873 613.017L582.161 617.473L580.67 621.13L578.357 623.884L575.196 625.651L571.185 626.369L566.346 626.002L560.725 624.542L554.389 622.01L547.424 618.458L539.931 613.963L532.022 608.624L523.815 602.559L515.428 595.899L506.977 588.782L498.569 581.348L490.304 573.734L482.266 566.072L474.529 558.483L467.152 551.076L460.178 543.947L453.642 537.18L447.566 530.846L441.961 525.005L436.831 519.707L432.176 514.994L427.989 510.904L424.26 507.47L420.981 504.727L418.14 502.71L415.728 501.46L413.739 501.025L412.168 501.465L411.016 502.856L410.29 505.293L410.004 508.9L410.179 513.833L410.848 520.294L412.057 528.542L413.87 538.913L416.372 551.845L419.675 567.913L423.93 587.878L423.939 595.952L415.06 575.892L407.83 559.824L401.892 546.972L396.976 536.755L392.875 528.731L389.433 522.562L386.523 517.991L384.047 514.819L381.925 512.893L380.094 512.095L378.497 512.338L377.09 513.553L375.833 515.689L374.69 518.708L373.629 522.581L372.62 527.283L371.635 532.793L370.646 539.09L369.626 546.148L368.549 553.938L367.389 562.418L366.12 571.538L364.717 581.233L363.158 591.421L361.422 602.004L359.49 612.864L357.349 623.867L354.99 634.862L352.408 645.682L349.608 656.153L346.598 666.096L343.396 675.333L340.025 683.694L336.516 691.028L332.903 697.203L329.226 702.118L325.526 705.703L321.845 707.926L318.221 708.792L314.692 708.341L311.29 706.645L308.04 703.806L304.962 699.95L302.067 695.216L299.362 689.758L296.843 683.732L294.504 677.292L292.332 670.588L290.309 663.762L288.414 656.94L286.624 650.239L284.914 643.759L283.259 637.587L281.631 631.796L280.004 626.445L278.351 621.584L276.648 617.25L274.87 613.472L272.991 610.272L270.991 607.662L268.846 605.651L266.536 604.243L264.04 603.435L261.341 603.221L258.422 603.592L255.267 604.533L251.864 606.023L248.202 608.039L244.275 610.548L240.078 613.513L235.615 616.889L230.891 620.62L225.922 624.643L220.728 628.882L215.34 633.252L209.796 637.657L204.146 641.989L198.448 646.133L192.771 649.965L187.193 653.356L181.798 656.176L176.677 658.297L171.923 659.6L167.63 659.978L163.886 659.34L160.771 657.622L158.355 654.781L156.69 650.808L155.811 645.723L155.733 639.577L156.447 632.449L157.925 624.447L160.119 615.694L162.963 606.335L166.377 596.519L170.27 586.399L174.544 576.127L179.1 565.846L183.836 555.688L188.657 545.769L193.473 536.19L198.199 527.035L202.761 518.372L207.092 510.253L211.135 502.715L214.839 495.786L218.16 489.482L221.057 483.812L223.494 478.781L225.437 474.39L226.85 470.639L227.695 467.53L227.928 465.068L227.498 463.264L226.342 462.136L224.384 461.711L221.527 462.029L217.649 463.148L212.597 465.144L206.173 468.119L198.124 472.212L188.122 477.6L175.74 484.522L160.417 493.29L141.406 504.322L146.498 497.552L161.645 483.926L173.737 472.889L183.342 463.913L190.889 456.602L196.701 450.651L201.027 445.827L204.058 441.946L205.936 438.866L206.773 436.474L206.65 434.676L205.63 433.401L203.758 432.588L201.064 432.185L197.573 432.15L193.301 432.445L188.26 433.033L182.462 433.883L175.919 434.962L168.648 436.235L160.674 437.667L152.029 439.22L142.759 440.854L132.922 442.522L122.596 444.178L111.872 445.769L100.865 447.242L89.702 448.541L78.5312 449.612L67.5126 450.399L56.8162 450.855L46.6166 450.934L37.0865 450.601L28.3904 449.829L20.6773 448.605L14.0738 446.924L8.67925 444.798L4.56031 442.248L1.74901 439.306L0.24166 436.015L0 432.424L0.954082 428.588L3.00657 424.563L6.03809 420.405L9.91312 416.169L14.486 411.905L19.6068 407.658L25.1263 403.466L30.9003 399.361L36.7932 395.366L42.6801 391.501L48.4488 387.777L53.9999 384.198L59.2473 380.765L64.1178 377.474L68.5499 374.317L72.4931 371.283L75.9063 368.36L78.7575 365.531L81.0215 362.78L82.6801 360.089L83.7206 357.439L84.1351 354.812L83.9208 352.188L83.0791 349.548L81.6163 346.872L79.5434 344.142L76.8768 341.34L73.6395 338.448L69.8611 335.451L65.5798 332.335L60.8428 329.087L55.708 325.7L50.2449 322.168L44.5355 318.489L38.6746 314.668L32.7707 310.713L26.9446 306.641L21.3287 302.474L16.0649 298.24L11.3011 293.977L7.18765 289.727L3.87214 285.538L1.49395 281.465L0.178265 277.562L0.0300487 273.888L1.1285 270.496L3.52236 267.438L7.22654 264.758L12.2204 262.494L18.4481 260.67L25.8203 259.3L34.2185 258.385L43.5002 257.915L53.5051 257.866L64.0622 258.206L74.997 258.893L86.1372 259.879L97.319 261.111L108.391 262.535L119.218 264.094L129.682 265.735L139.684 267.405L149.142 269.055L157.991 270.638L166.183 272.113L173.681 273.441L180.458 274.585L186.495 275.511L191.778 276.187L196.297 276.579L200.038 276.653L202.987 276.371L205.125 275.694L206.421 274.572L206.835 272.948L206.311 270.754L204.775 267.904L202.126 264.293L198.23 259.787L192.915 254.218L185.952 247.369L177.044 238.962L165.798 228.631L151.696 215.897L134.422 200.391L154.804 212.254L171.21 221.692L184.46 229.164L195.168 235.011L203.799 239.495L210.711 242.809L216.176 245.105L220.409 246.493L223.577 247.06L225.81 246.866L227.212 245.958L227.866 244.367L227.838 242.114L227.183 239.21L225.947 235.663L224.169 231.476L221.885 226.648L219.13 221.182L215.941 215.079L212.354 208.347L208.414 201.001L204.168 193.064L199.673 184.569L194.991 175.564L190.196 166.112L185.367 156.292L180.593 146.197L175.97 135.942L171.595 125.652L167.57 115.468L163.993 105.538L160.958 96.0166L158.549 87.0551L156.836 78.799L155.875 71.3802L155.699 64.9114L156.324 59.4813L157.741 55.1504L159.923 51.9489L162.822 49.8758L166.374 48.9003L170.501 48.9634L175.118 49.9826L180.132 51.8557L185.45 54.4665L190.98 57.6895L196.634 61.3949L202.333 65.4532L208.005 69.7387L213.589 74.1326L219.031 78.5248L224.291 82.8154L229.334 86.9155L234.138 90.7469L238.685 94.2421L242.967 97.3435L246.98 100.003L250.726 102.179L254.211 103.84L257.443 104.958L260.436 105.512L263.203 105.486L265.762 104.868L268.129 103.652L270.324 101.833L272.369 99.4131L274.283 96.3992L276.091 92.8033L277.816 88.6438L279.481 83.9469L281.114 78.7477L282.739 73.0909L284.383 67.0329L286.072 60.6423L287.833 54.0013L289.692 47.2063L291.672 40.3679L293.795 33.6105L296.079 27.0708L298.539 20.896L301.185 15.2398L304.02 10.2588L307.04 6.10689L310.237 2.92952L313.593 0.857348L317.085 0L320.682 0.440227L324.35 2.22907L328.048 5.38245L331.737 9.87942L335.375 15.6625L338.921 22.64L342.339 30.6899L345.598 39.6657L348.671 49.4026L351.539 59.725L354.191 70.4533L356.622 81.4106L358.831 92.428L360.828 103.349L362.625 114.034L364.239 124.36L365.689 134.221L366.998 143.532L368.19 152.223L369.29 160.237L370.326 167.532L371.321 174.074L372.305 179.837L373.303 184.799L374.344 188.938L375.458 192.232L376.675 194.653L378.03 196.167L379.562 196.725L381.313 196.268L383.336 194.712L385.691 191.951L388.453 187.845L391.714 182.21L395.589 174.81L400.226 165.334L405.813 153.377L412.597 138.407L420.906 119.716L425.516 113.576L420.919 134.982L417.331 152.198L414.588 166.059L412.566 177.193L411.172 186.076L410.336 193.075L410.008 198.47L410.15 202.48L410.738 205.275L411.755 206.988L413.193 207.722L415.049 207.558L417.326 206.562L420.029 204.784L423.168 202.268L426.752 199.051L430.792 195.167L435.297 190.648L440.275 185.532L445.729 179.859L451.656 173.676L458.048 167.04L464.885 160.018L472.138 152.689L479.766 145.147L487.715 137.496L495.917 129.853L504.289 122.347L512.738 115.114L521.157 108.293L529.435 102.024L537.452 96.4399L545.09 91.664L552.234 87.8021L558.781 84.9389L564.638 83.1337L569.732 82.4176L574.01 82.7925L577.443 84.2311L580.025 86.6793L581.773 90.0591L582.727 94.2727L582.944 99.208L582.498 104.743L581.474 110.753L579.965 117.112L578.069 123.698L575.885 130.399L573.507 137.11L571.03 143.742L568.539 150.213L566.115 156.458L563.828 162.422L561.743 168.061L559.917 173.343L558.399 178.243L557.233 182.747L556.455 186.845L556.097 190.535L556.186 193.819L556.743 196.703L557.789 199.197L559.337 201.314L561.4 203.07L563.984 204.482L567.094 205.573L570.728 206.365L574.88 206.885L579.537 207.161L584.679 207.227L590.278 207.118L596.296 206.875L602.684 206.541L609.379 206.164L616.309 205.796L623.384 205.492L630.502 205.309L637.546 205.308L644.389 205.547L650.891 206.086L656.908 206.979L662.292 208.277L666.896 210.021L670.582 212.243L673.227 214.964L674.726 218.189L675 221.912L674 226.109L671.711 230.743L668.151 235.765L663.373 241.114L657.464 246.721L650.536 252.514L642.726 258.415L634.189 264.35L625.087 270.248L615.589 276.044L605.859 281.682L596.056 287.115L586.326 292.303L576.803 297.22L567.602 301.846L558.823 306.17L550.551 310.19L542.855 313.909L535.792 317.335L529.406 320.481L523.736 323.363L518.814 325.998L514.668 328.407L511.327 330.609L508.824 332.626L507.197 334.48L506.493 336.191L506.773 337.782L508.118 339.276L510.627 340.697L514.434 342.071L519.708 343.426L526.671 344.795L535.607 346.216L546.889 347.737L561.002 349.417L578.586 351.332L600.494 353.585L608.556 354.394Z" fill="#A2BFFF" fill-opacity="0.6"/>
</svg>
