<svg width="417" height="709" viewBox="0 0 417 709" fill="none" xmlns="http://www.w3.org/2000/svg">
<path fill-rule="evenodd" clip-rule="evenodd" d="M-191.556 354.394L-168.048 356.781L-149.19 358.792L-134.05 360.537L-121.925 362.101L-112.287 363.549L-104.73 364.93L-98.945 366.285L-94.6915 367.65L-91.7848 369.053L-90.0818 370.521L-89.4719 372.079L-89.8695 373.75L-91.2084 375.555L-93.4371 377.518L-96.5147 379.659L-100.408 382L-105.086 384.561L-110.521 387.362L-116.682 390.422L-123.534 393.758L-131.034 397.382L-139.13 401.305L-147.755 405.533L-156.832 410.063L-166.265 414.889L-175.942 419.993L-185.737 425.352L-195.507 430.929L-205.096 436.681L-214.343 442.553L-223.078 448.484L-231.137 454.404L-238.362 460.239L-244.609 465.913L-249.758 471.352L-253.713 476.486L-256.411 481.249L-257.821 485.59L-257.949 489.467L-256.833 492.852L-254.543 495.734L-251.176 498.113L-246.85 500.007L-241.699 501.442L-235.867 502.459L-229.504 503.105L-222.754 503.434L-215.759 503.502L-208.652 503.371L-201.552 503.099L-194.565 502.745L-187.786 502.365L-181.293 502.012L-175.151 501.735L-169.414 501.579L-164.123 501.585L-159.309 501.791L-154.995 502.23L-151.195 502.932L-147.918 503.925L-145.166 505.233L-142.938 506.877L-141.227 508.877L-140.023 511.25L-139.311 514.008L-139.076 517.164L-139.294 520.724L-139.942 524.692L-140.988 529.067L-142.398 533.843L-144.131 539.005L-146.139 544.533L-148.368 550.398L-150.756 556.559L-153.234 562.965L-155.725 569.553L-158.144 576.249L-160.4 582.964L-162.399 589.598L-164.041 596.042L-165.23 602.176L-165.87 607.877L-165.873 613.017L-165.161 617.473L-163.67 621.13L-161.357 623.884L-158.196 625.651L-154.185 626.369L-149.346 626.002L-143.725 624.542L-137.389 622.01L-130.424 618.458L-122.931 613.963L-115.022 608.624L-106.815 602.559L-98.428 595.899L-89.9766 588.782L-81.5692 581.348L-73.3039 573.734L-65.2664 566.072L-57.5295 558.483L-50.1517 551.076L-43.1784 543.947L-36.6425 537.18L-30.5658 530.846L-24.9605 525.005L-19.8311 519.707L-15.1758 514.994L-10.9885 510.904L-7.26038 507.47L-3.98102 504.727L-1.14011 502.71L1.2717 501.46L3.26129 501.025L4.83234 501.465L5.98398 502.856L6.70981 505.293L6.99628 508.9L6.82138 513.833L6.15222 520.294L4.94263 528.542L3.12952 538.913L0.628052 551.845L-2.67493 567.913L-6.92999 587.878L-6.93927 595.952L1.93985 575.892L9.16962 559.824L15.1079 546.972L20.0244 536.755L24.1246 528.731L27.5674 522.562L30.4774 517.991L32.9533 514.819L35.0746 512.893L36.9064 512.095L38.5028 512.338L39.9097 513.553L41.167 515.689L42.3102 518.708L43.3712 522.581L44.38 527.283L45.3653 532.793L46.3542 539.09L47.374 546.148L48.4509 553.938L49.6112 562.418L50.8803 571.538L52.2828 581.233L53.8418 591.421L55.5782 602.004L57.5099 612.864L59.6509 623.867L62.0104 634.862L64.5919 645.682L67.3925 656.153L70.4023 666.096L73.6044 675.333L76.975 683.694L80.4842 691.028L84.0968 697.203L87.7736 702.118L91.4736 705.703L95.1554 707.926L98.779 708.792L102.308 708.341L105.71 706.645L108.96 703.806L112.038 699.95L114.933 695.216L117.638 689.758L120.157 683.732L122.496 677.292L124.668 670.588L126.691 663.762L128.586 656.94L130.376 650.239L132.086 643.759L133.741 637.587L135.369 631.796L136.996 626.445L138.649 621.584L140.352 617.25L142.13 613.472L144.009 610.272L146.009 607.662L148.154 605.651L150.464 604.243L152.96 603.435L155.659 603.221L158.578 603.592L161.733 604.533L165.136 606.023L168.798 608.039L172.725 610.548L176.922 613.513L181.385 616.889L186.109 620.62L191.078 624.643L196.272 628.882L201.66 633.252L207.204 637.657L212.854 641.989L218.552 646.133L224.229 649.965L229.807 653.356L235.202 656.176L240.323 658.297L245.077 659.6L249.37 659.978L253.114 659.34L256.229 657.622L258.645 654.781L260.31 650.808L261.189 645.723L261.267 639.577L260.553 632.449L259.075 624.447L256.881 615.694L254.037 606.335L250.623 596.519L246.73 586.399L242.456 576.127L237.9 565.846L233.164 555.688L228.343 545.769L223.527 536.19L218.801 527.035L214.239 518.372L209.908 510.253L205.865 502.715L202.161 495.786L198.84 489.482L195.943 483.812L193.506 478.781L191.563 474.39L190.15 470.639L189.305 467.53L189.072 465.068L189.502 463.264L190.658 462.136L192.616 461.711L195.473 462.029L199.351 463.148L204.403 465.144L210.827 468.119L218.876 472.212L228.878 477.6L241.26 484.522L256.583 493.29L275.594 504.322L270.502 497.552L255.355 483.926L243.263 472.889L233.658 463.913L226.111 456.602L220.299 450.651L215.973 445.827L212.942 441.946L211.064 438.866L210.227 436.474L210.35 434.676L211.37 433.401L213.242 432.588L215.936 432.185L219.427 432.15L223.699 432.445L228.74 433.033L234.538 433.883L241.081 434.962L248.352 436.235L256.326 437.667L264.971 439.22L274.241 440.854L284.078 442.522L294.404 444.178L305.128 445.769L316.135 447.242L327.298 448.541L338.469 449.612L349.487 450.399L360.184 450.855L370.383 450.934L379.914 450.601L388.61 449.829L396.323 448.605L402.926 446.924L408.321 444.798L412.44 442.248L415.251 439.306L416.758 436.015L417 432.424L416.046 428.588L413.993 424.563L410.962 420.405L407.087 416.169L402.514 411.905L397.393 407.658L391.874 403.466L386.1 399.361L380.207 395.366L374.32 391.501L368.551 387.777L363 384.198L357.753 380.765L352.882 377.474L348.45 374.317L344.507 371.283L341.094 368.36L338.243 365.531L335.978 362.78L334.32 360.089L333.279 357.439L332.865 354.812L333.079 352.188L333.921 349.548L335.384 346.872L337.457 344.142L340.123 341.34L343.36 338.448L347.139 335.451L351.42 332.335L356.157 329.087L361.292 325.7L366.755 322.168L372.465 318.489L378.325 314.668L384.229 310.713L390.055 306.641L395.671 302.474L400.935 298.24L405.699 293.977L409.812 289.727L413.128 285.538L415.506 281.465L416.822 277.562L416.97 273.888L415.871 270.496L413.478 267.438L409.773 264.758L404.78 262.494L398.552 260.67L391.18 259.3L382.781 258.385L373.5 257.915L363.495 257.866L352.938 258.206L342.003 258.893L330.863 259.879L319.681 261.111L308.609 262.535L297.782 264.094L287.318 265.735L277.316 267.405L267.858 269.055L259.009 270.638L250.817 272.113L243.319 273.441L236.542 274.585L230.505 275.511L225.222 276.187L220.703 276.579L216.962 276.653L214.013 276.371L211.875 275.694L210.579 274.572L210.165 272.948L210.689 270.754L212.225 267.904L214.874 264.293L218.77 259.787L224.085 254.218L231.048 247.369L239.956 238.962L251.202 228.631L265.304 215.897L282.578 200.391L262.196 212.254L245.79 221.692L232.54 229.164L221.832 235.011L213.201 239.495L206.289 242.809L200.824 245.105L196.591 246.493L193.423 247.06L191.19 246.866L189.788 245.958L189.134 244.367L189.162 242.114L189.817 239.21L191.053 235.663L192.831 231.476L195.115 226.648L197.87 221.182L201.059 215.079L204.646 208.347L208.586 201.001L212.832 193.064L217.327 184.569L222.009 175.564L226.804 166.112L231.633 156.292L236.407 146.197L241.03 135.942L245.405 125.652L249.43 115.468L253.007 105.538L256.042 96.0166L258.451 87.0551L260.164 78.799L261.125 71.3802L261.301 64.9114L260.676 59.4813L259.259 55.1504L257.077 51.9489L254.178 49.8758L250.626 48.9003L246.499 48.9634L241.882 49.9826L236.868 51.8557L231.55 54.4665L226.02 57.6895L220.366 61.3949L214.667 65.4532L208.995 69.7387L203.411 74.1326L197.969 78.5248L192.709 82.8154L187.666 86.9155L182.862 90.7469L178.315 94.2421L174.033 97.3435L170.02 100.003L166.274 102.179L162.789 103.84L159.557 104.958L156.564 105.512L153.797 105.486L151.238 104.868L148.871 103.652L146.676 101.833L144.631 99.4131L142.717 96.3992L140.909 92.8033L139.184 88.6438L137.519 83.9469L135.886 78.7477L134.261 73.0909L132.617 67.0329L130.928 60.6423L129.167 54.0013L127.308 47.2063L125.328 40.3679L123.205 33.6105L120.921 27.0708L118.461 20.896L115.815 15.2398L112.98 10.2588L109.96 6.10689L106.763 2.92952L103.407 0.857348L99.9149 0L96.3177 0.440227L92.6503 2.22907L88.9516 5.38245L85.2629 9.87942L81.6255 15.6625L78.0794 22.64L74.6611 30.6899L71.4024 39.6657L68.3291 49.4026L65.4605 59.725L62.8086 70.4533L60.3785 81.4106L58.1686 92.428L56.1715 103.349L54.3747 114.034L52.7613 124.36L51.3114 134.221L50.0024 143.532L48.8102 152.223L47.7095 160.237L46.6745 167.532L45.6786 174.074L44.6951 179.837L43.6968 184.799L42.6555 188.938L41.542 192.232L40.3247 194.653L38.9695 196.167L37.4381 196.725L35.6868 196.268L33.6642 194.712L31.3091 191.951L28.547 187.845L25.286 182.21L21.4106 174.81L16.774 165.334L11.1869 153.377L4.40259 138.407L-3.90564 119.716L-8.51624 113.576L-3.91855 134.982L-0.33075 152.198L2.4122 166.059L4.43414 177.193L5.82822 186.076L6.66376 193.075L6.99197 198.47L6.84958 202.48L6.2619 205.275L5.24487 206.988L3.8071 207.722L1.95099 207.558L-0.325684 206.562L-3.02899 204.784L-6.1676 202.268L-9.75165 199.051L-13.7916 195.167L-18.297 190.648L-23.275 185.532L-28.7289 179.859L-34.6563 173.676L-41.0478 167.04L-47.8848 160.018L-55.138 152.689L-62.7663 145.147L-70.7152 137.496L-78.9167 129.853L-87.289 122.347L-95.7376 115.114L-104.157 108.293L-112.435 102.024L-120.452 96.4399L-128.09 91.664L-135.234 87.8021L-141.781 84.9389L-147.638 83.1337L-152.732 82.4176L-157.01 82.7925L-160.443 84.2311L-163.025 86.6793L-164.773 90.0591L-165.727 94.2727L-165.944 99.208L-165.498 104.743L-164.474 110.753L-162.965 117.112L-161.069 123.698L-158.885 130.399L-156.507 137.11L-154.03 143.742L-151.539 150.213L-149.115 156.458L-146.828 162.422L-144.743 168.061L-142.917 173.343L-141.399 178.243L-140.233 182.747L-139.455 186.845L-139.097 190.535L-139.186 193.819L-139.743 196.703L-140.789 199.197L-142.337 201.314L-144.4 203.07L-146.984 204.482L-150.094 205.573L-153.728 206.365L-157.88 206.885L-162.537 207.161L-167.679 207.227L-173.278 207.118L-179.296 206.875L-185.684 206.541L-192.379 206.164L-199.309 205.796L-206.384 205.492L-213.502 205.309L-220.546 205.308L-227.389 205.547L-233.891 206.086L-239.908 206.979L-245.292 208.277L-249.896 210.021L-253.582 212.243L-256.227 214.964L-257.726 218.189L-258 221.912L-257 226.109L-254.711 230.743L-251.151 235.765L-246.373 241.114L-240.464 246.721L-233.536 252.514L-225.726 258.415L-217.189 264.35L-208.087 270.248L-198.589 276.044L-188.859 281.682L-179.056 287.115L-169.326 292.303L-159.803 297.22L-150.602 301.846L-141.823 306.17L-133.551 310.19L-125.855 313.909L-118.792 317.335L-112.406 320.481L-106.736 323.363L-101.814 325.998L-97.6677 328.407L-94.327 330.609L-91.8239 332.626L-90.1966 334.48L-89.4927 336.191L-89.7734 337.782L-91.1176 339.276L-93.627 340.697L-97.4337 342.071L-102.708 343.426L-109.671 344.795L-118.607 346.216L-129.889 347.737L-144.002 349.417L-161.586 351.332L-183.494 353.585L-191.556 354.394Z" fill="#A2BFFF" fill-opacity="0.6"/>
</svg>
