<svg width="1440" height="1024" viewBox="0 0 1440 1024" fill="none" xmlns="http://www.w3.org/2000/svg">
<path opacity="0.25" d="M144 201.387C161.894 201.387 176.4 187.633 176.4 170.667C176.4 153.7 161.894 139.947 144 139.947C126.106 139.947 111.6 153.7 111.6 170.667C111.6 187.633 126.106 201.387 144 201.387Z" fill="#4276F9"/>
<path opacity="0.3" d="M270 361.813C281.929 361.813 291.6 352.644 291.6 341.333C291.6 330.022 281.929 320.853 270 320.853C258.071 320.853 248.4 330.022 248.4 341.333C248.4 352.644 258.071 361.813 270 361.813Z" fill="#4276F9"/>
<path opacity="0.2" d="M396 247.467C420.853 247.467 441 228.364 441 204.8C441 181.236 420.853 162.133 396 162.133C371.147 162.133 351 181.236 351 204.8C351 228.364 371.147 247.467 396 247.467Z" fill="#4276F9"/>
<path opacity="0.25" d="M540 409.6C559.882 409.6 576 394.318 576 375.467C576 356.615 559.882 341.333 540 341.333C520.118 341.333 504 356.615 504 375.467C504 394.318 520.118 409.6 540 409.6Z" fill="#4276F9"/>
<path opacity="0.15" d="M720 204.8C749.823 204.8 774 181.877 774 153.6C774 125.323 749.823 102.4 720 102.4C690.177 102.4 666 125.323 666 153.6C666 181.877 690.177 204.8 720 204.8Z" fill="#4276F9"/>
<path opacity="0.3" d="M900 279.893C913.918 279.893 925.2 269.196 925.2 256C925.2 242.804 913.918 232.107 900 232.107C886.082 232.107 874.8 242.804 874.8 256C874.8 269.196 886.082 279.893 900 279.893Z" fill="#4276F9"/>
<path opacity="0.25" d="M1080 204.8C1099.88 204.8 1116 189.518 1116 170.667C1116 151.815 1099.88 136.533 1080 136.533C1060.12 136.533 1044 151.815 1044 170.667C1044 189.518 1060.12 204.8 1080 204.8Z" fill="#4276F9"/>
<path opacity="0.2" d="M1260 372.053C1277.89 372.053 1292.4 358.299 1292.4 341.333C1292.4 324.367 1277.89 310.613 1260 310.613C1242.11 310.613 1227.6 324.367 1227.6 341.333C1227.6 358.299 1242.11 372.053 1260 372.053Z" fill="#4276F9"/>
<path opacity="0.3" d="M1350 157.013C1361.93 157.013 1371.6 147.844 1371.6 136.533C1371.6 125.222 1361.93 116.053 1350 116.053C1338.07 116.053 1328.4 125.222 1328.4 136.533C1328.4 147.844 1338.07 157.013 1350 157.013Z" fill="#4276F9"/>
<path opacity="0.25" d="M180 634.88C201.87 634.88 219.6 618.07 219.6 597.333C219.6 576.597 201.87 559.787 180 559.787C158.13 559.787 140.4 576.597 140.4 597.333C140.4 618.07 158.13 634.88 180 634.88Z" fill="#4276F9"/>
<path opacity="0.15" d="M360 815.786C387.835 815.786 410.4 794.392 410.4 768C410.4 741.608 387.835 720.213 360 720.213C332.165 720.213 309.6 741.608 309.6 768C309.6 794.392 332.165 815.786 360 815.786Z" fill="#4276F9"/>
<path opacity="0.2" d="M540 716.8C559.882 716.8 576 701.518 576 682.667C576 663.815 559.882 648.533 540 648.533C520.118 648.533 504 663.815 504 682.667C504 701.518 520.118 716.8 540 716.8Z" fill="#4276F9"/>
<path opacity="0.3" d="M720 880.64C735.906 880.64 748.8 868.414 748.8 853.333C748.8 838.252 735.906 826.027 720 826.027C704.094 826.027 691.2 838.252 691.2 853.333C691.2 868.414 704.094 880.64 720 880.64Z" fill="#4276F9"/>
<path opacity="0.2" d="M900 778.24C925.847 778.24 946.8 758.373 946.8 733.867C946.8 709.36 925.847 689.493 900 689.493C874.153 689.493 853.2 709.36 853.2 733.867C853.2 758.373 874.153 778.24 900 778.24Z" fill="#4276F9"/>
<path opacity="0.25" d="M1080 918.187C1097.89 918.187 1112.4 904.433 1112.4 887.467C1112.4 870.5 1097.89 856.747 1080 856.747C1062.11 856.747 1047.6 870.5 1047.6 887.467C1047.6 904.433 1062.11 918.187 1080 918.187Z" fill="#4276F9"/>
<path opacity="0.2" d="M1260 737.28C1281.87 737.28 1299.6 720.47 1299.6 699.733C1299.6 678.997 1281.87 662.187 1260 662.187C1238.13 662.187 1220.4 678.997 1220.4 699.733C1220.4 720.47 1238.13 737.28 1260 737.28Z" fill="#4276F9"/>
<path opacity="0.3" d="M1404 877.227C1417.92 877.227 1429.2 866.529 1429.2 853.333C1429.2 840.137 1417.92 829.44 1404 829.44C1390.08 829.44 1378.8 840.137 1378.8 853.333C1378.8 866.529 1390.08 877.227 1404 877.227Z" fill="#4276F9"/>
</svg>
