<svg width="50" height="50" viewBox="0 0 50 50" fill="none" xmlns="http://www.w3.org/2000/svg">
<path d="M7.68359 10.1562L10.8355 45.5051L24.9785 49.4309L39.1609 45.5L42.3164 10.1562H7.68359ZM34.7187 29.8781L33.8008 38.4297L33.8043 39.1621L25 41.6211L24.993 41.6273L16.1184 39.1957L15.518 32.4219H19.8699L20.1785 35.8461L25.0016 37.1332L25 37.1391V37.1266L29.8414 35.7613L30.3523 30.0781H20.2324L20.1457 29.1582L19.948 26.9523L19.8445 25.7812H30.7375L31.1336 21.4844H14.5426L14.4555 20.473L14.2578 18.1176L14.1543 16.7969H35.8719L35.7676 18.0992L34.7187 29.8781ZM34.7656 5.61484L31.973 2.34375H34.7656V0.390625H28.5156V2.09492L31.793 5.07812H28.5156V7.03125H34.7656V5.61484ZM27.3438 5.61484L24.6848 2.34375H27.3438V0.390625H21.4844V2.09492L24.5051 5.07812H21.4844V7.03125H27.3438V5.61484ZM20.3125 5.07812H17.1875V2.34375H20.3125V0.390625H14.8437V7.03125H20.3125V5.07812Z" fill="#201F46"/>
</svg>
