<svg width="50" height="50" viewBox="0 0 50 50" fill="none" xmlns="http://www.w3.org/2000/svg">
<path d="M7.64413 10.5468L10.8031 45.6714L24.9785 49.4535L39.1934 45.7429L42.3559 10.5468H7.64413ZM35.7852 18.5433L35.5871 20.8222L35.5 21.875H18.8715L19.2687 26.5625H35.1047L34.9988 27.4339L33.9773 38.7265L33.9023 39.3867L25 41.7828V41.7808L24.9894 41.7855L16.0922 39.4746L15.4883 32.8125H19.8508L20.1598 36.1171L24.9977 37.3433L25 37.2519V37.2566L29.8484 36.2218L30.3547 30.8593H15.2941L14.2262 18.814L14.1219 17.5781H35.8891L35.7852 18.5433ZM10.9203 0.635498H13.1164V2.80581H15.1258V0.635498H17.3223V7.20659H15.1258V5.0062H13.1168V7.20659H10.9203V0.635498ZM20.2101 2.8148H18.2766V0.635498H24.341V2.8148H22.4066V7.20659H20.2101V2.8148ZM25.3035 0.635498H27.5934L29.0023 2.94448L30.4098 0.635498H32.7008V7.20659H30.5129V3.94956L29.0023 6.28589H28.9641L27.4523 3.94956V7.20659H25.3031L25.3035 0.635498ZM33.7941 0.635498H35.991V5.03472H39.0797V7.20698H33.7941V0.635498Z" fill="#201F46"/>
</svg>
