<svg width="50" height="50" viewBox="0 0 50 50" fill="none" xmlns="http://www.w3.org/2000/svg">
<path d="M25 0C18.3696 0 12.0107 2.63392 7.32233 7.32233C2.63392 12.0107 0 18.3696 0 25C0 31.6304 2.63392 37.9893 7.32233 42.6777C12.0107 47.3661 18.3696 50 25 50C29.9402 49.9902 34.7667 48.517 38.8703 45.7664L18.3648 19.2734V34.9914H15V15H19.2062L41.5207 43.7438C44.1829 41.3998 46.3158 38.5162 47.7777 35.2845C49.2397 32.0528 49.9972 28.547 50 25C50 18.3696 47.3661 12.0107 42.6777 7.32233C37.9893 2.63392 31.6304 0 25 0ZM31.9441 15H35.2777V34.0531L31.9441 29.6758V15ZM41.3895 43.875L41.3461 43.9125C41.3606 43.9 41.375 43.8875 41.3895 43.875Z" fill="#201F46"/>
</svg>
