<svg width="350" height="350" viewBox="0 0 350 350" fill="none" xmlns="http://www.w3.org/2000/svg">
<path d="M193.972 216.826C195.769 216.404 197.421 215.984 199.09 215.648C201.361 215.192 202.693 216.126 203.161 218.381C203.37 219.389 203.461 220.396 203.46 221.426C203.452 236.402 203.203 251.384 203.546 266.353C203.806 277.683 192.164 282.362 184.116 278.931C177.437 276.082 176.364 267.283 182.105 262.27C185.82 259.026 190.179 258.318 194.886 259.305C196.53 259.65 197.42 259.094 197.427 257.381C197.458 250.035 197.457 242.69 197.429 235.344C197.424 233.755 196.81 233.36 195.034 233.747C187.266 235.44 179.503 237.155 171.74 238.87C170.021 239.249 168.319 239.711 166.591 240.035C165.007 240.333 164.49 241.203 164.497 242.783C164.546 253.545 164.383 264.31 164.57 275.069C164.691 282.073 159.088 286.991 152.417 287.537C150.898 287.661 149.371 287.599 147.839 287.26C143.782 286.36 141.009 284.052 140.142 279.97C139.264 275.837 140.637 272.267 143.932 269.642C147.397 266.882 151.391 265.87 155.797 266.785C157.846 267.211 158.467 266.719 158.469 264.567C158.479 252.779 158.473 240.992 158.471 229.205C158.47 225.617 159.365 224.479 162.913 223.692C173.218 221.408 183.527 219.14 193.972 216.826Z" fill="#201F46"/>
<path d="M161.304 38.195C182.087 29.1505 205.868 41.5655 210.164 63.9437C213.792 82.8445 202.208 101.399 183.932 105.813C162.978 110.874 144.723 97.552 140.811 78.2328C137.952 64.1103 142.246 52.182 153.468 42.9324C155.809 41.0028 158.443 39.5291 161.304 38.195ZM204.179 83.0054C205.172 80.6342 205.764 78.1546 206.231 75.6339C206.448 74.4602 206.235 73.6015 205.228 72.8129C202.675 70.8137 200.236 68.6695 197.7 66.6477C196.295 65.5275 195.682 64.1824 195.705 62.3702C195.754 58.4363 196.388 54.5694 196.921 50.6944C197.056 49.7119 196.897 49.0737 196.227 48.429C194.002 46.2883 191.585 44.4142 188.92 42.8424C187.988 42.2931 187.363 42.4064 186.496 43.0164C183.66 45.0128 180.784 46.9505 177.771 48.6904C175.92 49.7597 174.309 49.7016 172.511 48.6265C169.578 46.8716 166.703 45.0357 163.956 43.0024C163.241 42.473 162.606 42.0779 161.657 42.643C158.945 44.2575 156.499 46.1836 154.349 48.491C153.948 48.9209 153.701 49.3555 153.787 50.0113C154.171 52.9326 154.4 55.8771 154.869 58.7836C155.486 62.6025 154.983 65.7996 151.35 68.0846C149.2 69.4371 147.364 71.2889 145.391 72.9211C144.907 73.321 144.343 73.7234 144.434 74.4401C144.915 78.2341 145.693 81.9453 147.632 85.3137C148.034 86.0119 148.576 86.3535 149.425 86.3699C152.496 86.4292 155.521 86.9434 158.548 87.416C161.067 87.8092 162.989 88.8867 163.996 91.4407C165.227 94.5591 166.673 97.5928 168.029 100.661C168.329 101.341 168.613 101.949 169.529 102.094C172.701 102.595 175.883 102.426 179.065 102.372C181.226 102.336 182.494 101.389 183.226 99.2043C184.233 96.1948 185.555 93.2803 187.073 90.4664C187.891 88.9504 189.054 88.0768 190.711 87.6538C193.589 86.9196 196.548 86.4299 199.46 86.4726C202.069 86.5108 203.359 85.5 204.179 83.0054Z" fill="#201F46"/>
<path d="M139.913 168.024C134.461 159.601 133.01 150.83 137.5 141.726C142.324 131.945 153.743 126.854 165.601 131.219C174.382 134.451 180.505 140.41 183.45 149.461C183.904 150.854 183.579 151.652 182.528 152.518C175.363 158.418 168.225 164.352 161.092 170.29C158.247 172.658 155.43 175.059 152.612 177.46C151.864 178.097 151.183 178.474 150.19 177.821C146.199 175.201 142.642 172.14 139.913 168.024Z" fill="#201F46"/>
<path d="M179.768 136.435C178.858 135.461 179.504 134.942 180.161 134.417C182.984 132.164 186.239 130.81 189.742 130.173C202.119 127.922 213.582 136.148 215.378 148.615C216.577 156.936 214.003 164.216 208.734 170.616C207.615 171.974 206.318 173.187 205.092 174.456C204.597 174.967 204.064 175.338 203.28 174.995C197.876 172.631 193.31 173.769 189.564 178.305C189.467 178.423 189.282 178.469 188.957 178.647C187.175 176.544 185.355 174.458 183.817 172.139C183.137 171.115 183.622 170.179 184.113 169.257C185.588 166.487 186.841 163.63 187.534 160.549C189.135 153.433 187.255 147.049 183.385 141.12C182.332 139.506 181.031 138.052 179.768 136.435Z" fill="#201F46"/>
<path d="M159.166 175.908C167.565 168.846 175.87 161.859 184.382 154.697C184.815 156.498 184.363 158.091 184.147 159.653C183.792 162.219 182.66 164.528 181.486 166.811C179.231 171.196 179.396 172.415 182.635 176.116C183.797 177.444 184.907 178.817 186.09 180.126C187.737 181.949 189.326 183.727 189.393 186.436C189.429 187.929 190.298 189.239 191.269 190.382C191.832 191.045 191.828 191.566 191.133 192.096C190.184 192.819 189.309 193.66 188.293 194.269C186.097 195.584 184.197 195.253 182.537 193.307C179.656 189.929 176.785 186.541 173.971 183.107C171.326 179.878 168.059 178.721 163.974 179.689C161.172 180.353 158.36 180.254 155.351 179.305C156.393 177.806 157.92 177.092 159.166 175.908Z" fill="#201F46"/>
<path d="M205.523 181.527C206.745 185.201 205.92 188.449 203.348 190.401C200.804 192.331 196.965 192.431 194.381 190.635C191.895 188.907 190.665 185.741 191.418 182.821C192.185 179.848 194.102 177.948 197.102 177.329C200.414 176.645 203.482 177.988 205.087 180.641C205.234 180.883 205.347 181.146 205.523 181.527Z" fill="#201F46"/>
<path d="M169.192 182.702C170.781 183.713 171.595 185.274 172.775 186.498C173.323 187.067 173.153 187.609 172.706 188.165C171.244 189.983 169.778 191.8 168.353 193.647C167.135 195.225 165.514 195.173 163.862 194.757C162.387 194.386 161.214 193.444 160.244 192.297C158.381 190.093 158.627 188.513 160.321 186.211C162.581 183.142 165.553 182.359 169.192 182.702Z" fill="#201F46"/>
<path d="M186.029 77.9781C185.572 79.3453 185.149 80.5817 184.734 81.8209C184.282 83.1691 183.361 83.8661 181.929 83.8664C177.547 83.8672 173.164 83.8594 168.781 83.8731C167.327 83.8777 166.411 83.1453 165.962 81.8337C164.525 77.6396 163.112 73.4369 161.709 69.2312C161.306 68.0217 161.619 66.9733 162.624 66.1817C166.289 63.2948 169.957 60.4116 173.641 57.5486C174.772 56.6696 175.994 56.6964 177.107 57.5552C180.755 60.371 184.386 63.2102 187.994 66.077C189.083 66.942 189.376 68.1012 188.912 69.4486C187.95 72.244 187.013 75.048 186.029 77.9781Z" fill="#201F46"/>
</svg>
