<svg width="50" height="50" viewBox="0 0 50 50" fill="none" xmlns="http://www.w3.org/2000/svg">
<path d="M23.8769 36.1019C20.687 36.1016 17.5214 36.1015 14.3559 36.101C13.4962 36.1009 13.077 35.688 13.0774 34.8326C13.08 28.0214 13.0842 21.2102 13.0872 14.399C13.0875 13.7643 13.0798 13.1295 13.082 12.4948C13.084 11.8965 13.3015 11.5244 13.7481 11.3568C13.9636 11.276 14.1928 11.2698 14.4212 11.2699C18.2133 11.2701 22.0055 11.27 25.7976 11.2695C29.0039 11.269 32.2101 11.2679 35.4163 11.2671C35.5465 11.267 35.6767 11.2654 35.8069 11.2664C36.5903 11.2722 37.0271 11.7121 37.0271 12.5005C37.0275 19.2711 37.0271 26.0416 37.027 32.8122C37.027 33.5202 37.0297 34.2281 37.0266 34.9361C37.0236 35.6398 36.5692 36.0994 35.8637 36.0999C31.8763 36.1026 27.8888 36.1016 23.8769 36.1019ZM28.0096 30.475C29.0358 29.4767 30.0601 28.4764 31.0907 27.4825C31.2313 27.3469 31.2861 27.2053 31.2847 27.0107C31.2704 25.0579 31.2604 23.1051 31.2575 21.1523C31.2562 20.2899 31.2752 19.4276 31.2811 18.5652C31.2818 18.4647 31.3157 18.3518 31.1762 18.2236C29.1327 20.2384 27.0884 22.2541 25.0234 24.2902C22.9601 22.2623 20.9068 20.2442 18.8416 18.2145C18.7434 18.3465 18.7672 18.4471 18.7672 18.5408C18.7661 21.3565 18.7687 24.1722 18.7621 26.9878C18.7616 27.1939 18.8237 27.3408 18.9683 27.4796C19.8195 28.2963 20.6661 29.1178 21.5133 29.9385C22.6119 31.0028 23.7092 32.0682 24.808 33.1322C25.0416 33.3584 25.0402 33.3532 25.2684 33.1313C26.1725 32.2523 27.0787 31.3754 28.0096 30.475ZM24.601 21.3704C24.6884 21.4555 24.7803 21.5364 24.8622 21.6265C24.9847 21.7611 25.0839 21.7693 25.2228 21.6296C26.4101 20.4356 27.6024 19.2465 28.7978 18.0605C28.9378 17.9217 28.9468 17.8254 28.8001 17.682C27.5961 16.5048 26.396 15.3237 25.2012 14.1371C25.0503 13.9872 24.9598 13.9897 24.8086 14.1403C23.6387 15.3057 22.46 16.4622 21.2847 17.6221C21.0534 17.8503 21.0528 17.8542 21.2827 18.0824C22.3797 19.1714 23.4778 20.2592 24.601 21.3704ZM20.4803 31.8391C19.3996 30.7918 18.321 29.7423 17.236 28.6994C17.0545 28.525 16.9711 28.3417 16.9716 28.081C16.9796 24.0858 16.9772 20.0905 16.9772 16.0952C16.9772 15.754 16.977 15.7538 17.3088 15.754C18.3178 15.7546 19.3273 15.7382 20.3356 15.7643C20.7376 15.7748 20.9197 15.5331 21.1234 15.2609C20.9963 15.2309 20.877 15.2307 20.7577 15.2309C19.4639 15.2328 18.1702 15.2343 16.8765 15.2371C16.459 15.238 16.4621 15.2394 16.4622 15.6609C16.4632 19.6887 16.4646 23.7166 16.4622 27.7444C16.4616 28.7252 16.4583 28.7221 17.1882 29.3871C17.554 29.7204 17.9113 30.0635 18.2452 30.437C18.2209 30.4724 18.2063 30.5014 18.1847 30.5239C17.5895 31.1477 16.9924 31.7697 16.3996 32.3957C16.3371 32.4616 16.2675 32.4746 16.1868 32.493C15.3004 32.695 14.9686 33.3735 15.0253 33.9855C15.081 34.5872 15.4523 35.0088 16.047 35.1603C16.632 35.3094 17.1772 35.161 17.52 34.6566C17.7264 34.3529 17.9651 34.3227 18.2606 34.3322C19.741 34.3795 21.222 34.3417 22.7026 34.3589C22.7859 34.3599 22.8839 34.3934 22.9788 34.2578C22.1576 33.4624 21.3317 32.6625 20.4803 31.8391ZM33.1007 26.6371C33.0916 27.1819 33.0809 27.7267 33.0744 28.2715C33.073 28.3831 33.0449 28.4701 32.9592 28.5516C32.4171 29.067 31.8795 29.5871 31.3421 30.1076C29.9459 31.4598 28.5502 32.8127 27.1557 34.1667C27.0898 34.2306 26.9905 34.2772 27.0009 34.4175C27.3009 34.4828 27.5788 34.5078 27.8294 34.2569C28.2662 33.8197 28.7225 33.402 29.1604 32.9659C29.3176 32.8093 29.489 32.7402 29.7062 32.7545C29.9737 32.7722 30.2418 32.7903 30.5098 32.7918C31.4454 32.7969 32.381 32.7952 33.3167 32.7954C33.6747 32.7954 33.6809 32.7891 33.6812 32.4233C33.6826 30.813 33.6511 29.2029 33.6388 27.593C33.6084 23.5903 33.6279 19.5873 33.6273 15.5844C33.6273 15.2334 33.6273 15.2326 33.278 15.2327C31.9274 15.233 30.5769 15.2333 29.2264 15.2357C29.1412 15.2359 29.0473 15.2069 28.9484 15.3015C29.153 15.5232 29.2999 15.7711 29.6799 15.763C30.7209 15.7406 31.7626 15.7572 32.804 15.7536C32.9692 15.7531 33.0741 15.7697 33.0897 15.9808C33.1092 16.243 33.0727 16.5005 33.0763 16.7605C33.088 17.6219 33.1142 18.484 33.0946 19.3448C33.0715 20.3612 33.1032 21.377 33.0853 22.3935C33.0608 23.792 33.0508 25.1918 33.1007 26.6371ZM15.3252 20.8252C15.3292 19.328 15.3326 17.8307 15.3379 16.3335C15.3386 16.1547 15.3523 15.9761 15.3548 15.7973C15.3565 15.6697 15.283 15.5808 15.1774 15.5252C15.0523 15.4594 14.9798 15.5655 14.9087 15.6355C14.8379 15.7052 14.7248 15.7809 14.8015 15.9015C14.9201 16.0879 14.9005 16.2918 14.9003 16.4929C14.898 18.9096 14.8933 21.3263 14.8898 23.7431C14.8897 23.808 14.891 23.8735 14.8993 23.9377C14.9144 24.0544 14.9743 24.1457 15.0989 24.1451C15.2319 24.1445 15.3024 24.0539 15.3148 23.9251C15.3234 23.8362 15.3235 23.7463 15.3236 23.6569C15.3246 22.7293 15.3248 21.8017 15.3252 20.8252ZM16.3382 14.1062C16.3505 14.0676 16.3674 14.0298 16.3744 13.9902C16.4408 13.6134 16.3339 13.298 16.0241 13.0672C15.7184 12.8394 15.3823 12.79 15.0435 12.9786C14.7117 13.1633 14.5436 13.4568 14.5701 13.8439C14.5979 14.2511 14.8896 14.5649 15.3189 14.6598C15.7023 14.7446 16.0897 14.545 16.3382 14.1062ZM15.1088 29.2753C15.3107 29.2345 15.3194 29.0815 15.3195 28.9194C15.3204 27.7084 15.3229 26.4974 15.3238 25.2865C15.3239 25.2218 15.3318 25.1496 15.3067 25.0942C15.257 24.9849 15.193 24.8539 15.0449 24.8913C14.907 24.9261 14.8257 25.0336 14.8643 25.1894C14.914 25.39 14.899 25.5935 14.8988 25.796C14.8976 26.82 14.8924 27.8441 14.8925 28.8681C14.8925 29.0251 14.8581 29.2068 15.1088 29.2753ZM27.9985 12.6793C27.9269 12.6921 27.8532 12.6981 27.784 12.7188C27.4353 12.8232 27.1993 13.1535 27.2001 13.5299C27.2008 13.8877 27.439 14.193 27.7986 14.2974C28.1346 14.3948 28.5319 14.2488 28.7164 13.9599C28.9064 13.6622 28.8787 13.2882 28.6434 13.01C28.4841 12.8216 28.277 12.7204 27.9985 12.6793ZM22.3982 14.3757C22.7215 14.1918 22.814 13.8979 22.7859 13.5503C22.7581 13.2081 22.4864 12.9224 22.1739 12.8995C21.8464 12.8755 21.6022 13.0817 21.5168 13.4543C21.3781 14.0604 21.8139 14.5411 22.3982 14.3757ZM19.4511 13.0233C19.2061 13.2409 19.1732 13.5252 19.2044 13.8262C19.2371 14.1417 19.4865 14.3989 19.7811 14.4307C20.0326 14.4578 20.3182 14.2679 20.409 13.9827C20.4813 13.7555 20.4846 13.5173 20.3826 13.2932C20.2033 12.8992 19.8673 12.7932 19.4511 13.0233ZM35.4543 21.2208C35.3563 21.0489 35.219 20.9352 35.0148 20.9123C34.8106 20.8894 34.6471 20.9545 34.5293 21.1244C34.3629 21.3644 34.3425 21.6208 34.4574 21.8861C34.5477 22.0947 34.7003 22.2328 34.936 22.245C35.1847 22.258 35.3506 22.1223 35.4574 21.9123C35.5666 21.6978 35.5644 21.4755 35.4543 21.2208ZM34.402 33.7065C34.3521 33.7934 34.3362 33.8881 34.3329 33.987C34.3247 34.2325 34.4388 34.4068 34.6464 34.5235C34.8793 34.6544 35.1033 34.6088 35.3106 34.4656C35.5059 34.3307 35.5617 34.128 35.5244 33.906C35.4827 33.6582 35.3219 33.5048 35.0829 33.4375C34.8081 33.3601 34.5895 33.4498 34.402 33.7065ZM30.1275 33.823C30.0504 34.1841 30.1604 34.4172 30.4746 34.5582C30.6995 34.6591 31.0186 34.567 31.1716 34.3571C31.3734 34.0802 31.3031 33.7146 31.0124 33.5293C30.6748 33.3142 30.3575 33.4085 30.1275 33.823ZM34.9408 19.0514C34.9498 19.3194 34.9578 19.5874 34.9685 19.8554C34.9721 19.9442 34.9664 20.0458 35.1006 20.0433C35.2246 20.041 35.2393 19.9543 35.2392 19.8573C35.2389 19.3775 35.2393 18.8977 35.2385 18.4179C35.2384 18.3446 35.2423 18.253 35.1482 18.2424C34.9886 18.2244 34.8187 18.1933 34.6805 18.3117C34.5841 18.3943 34.4566 18.4893 34.5572 18.6332C34.6754 18.8022 34.7571 18.6306 34.8496 18.5776C34.8606 18.5713 34.8798 18.5795 34.9085 18.5823C34.9612 18.7191 34.9147 18.8673 34.9408 19.0514ZM35.1109 30.4425C34.9807 30.4357 34.8461 30.4216 34.7354 30.5064C34.6506 30.5713 34.5116 30.6283 34.5737 30.7668C34.6319 30.8968 34.7548 30.8746 34.8684 30.8267C34.8771 30.8231 34.8947 30.8406 34.966 30.8814C34.966 31.2446 34.9644 31.6412 34.9671 32.0377C34.9679 32.1405 34.953 32.2669 35.1158 32.2608C35.2654 32.2553 35.2396 32.1359 35.2401 32.0433C35.2427 31.5887 35.2428 31.1341 35.2411 30.6795C35.2408 30.5934 35.2596 30.4947 35.1109 30.4425ZM34.5265 15.9349C34.6063 16.1535 34.7721 16.0251 34.9655 16.0079C34.9655 16.4248 34.965 16.8214 34.9658 17.2181C34.966 17.3213 34.9761 17.4223 35.1172 17.4167C35.2502 17.4115 35.2389 17.3087 35.2393 17.2203C35.2414 16.8055 35.2415 16.3907 35.2422 15.9759C35.2428 15.6384 35.2152 15.6167 34.8819 15.643C34.7045 15.657 34.6047 15.7606 34.5265 15.9349ZM35.241 13.2642C35.2206 13.1507 35.305 12.9839 35.1686 12.9341C35.0058 12.8748 34.8146 12.8673 34.6592 12.9901C34.5986 13.0379 34.5178 13.0979 34.5727 13.1917C34.6184 13.2697 34.6852 13.3351 34.793 13.2825C34.8295 13.2647 34.8674 13.2488 34.9388 13.2827C34.9627 13.6696 34.9579 14.0569 34.9658 14.4439C34.968 14.5512 34.91 14.72 35.1013 14.7261C35.303 14.7325 35.2378 14.5605 35.2396 14.4545C35.2461 14.0735 35.2412 13.6922 35.241 13.2642ZM34.9825 25.4572C34.9338 25.4573 34.8851 25.4563 34.8364 25.4578C34.675 25.4628 34.5506 25.5512 34.5653 25.7042C34.5797 25.8543 34.7299 25.8207 34.8438 25.8039C34.8639 25.8009 34.8866 25.8156 34.9671 25.84C34.9671 26.2238 34.9653 26.6198 34.9686 27.0158C34.9693 27.1023 34.964 27.2125 35.0919 27.2149C35.2262 27.2174 35.2392 27.1145 35.2391 27.01C35.2389 26.5636 35.2358 26.1173 35.2409 25.671C35.2427 25.5143 35.1792 25.4443 34.9825 25.4572ZM34.9357 28.8608C34.9446 29.0547 34.951 29.2487 34.9635 29.4423C34.9695 29.5337 34.9438 29.6561 35.0881 29.6637C35.2458 29.6719 35.239 29.5502 35.2395 29.4435C35.241 29.0631 35.2409 28.6827 35.2415 28.3024C35.2421 27.9599 35.1099 27.8566 34.7801 27.9557C34.6482 27.9953 34.5335 28.0977 34.5713 28.2374C34.6149 28.398 34.7468 28.3188 34.8502 28.278C34.8616 28.2735 34.8797 28.2857 34.9043 28.2931C34.9579 28.462 34.9149 28.641 34.9357 28.8608ZM35.2375 23.244C35.1929 23.0201 35.0117 23.1039 34.8839 23.1004C34.7208 23.096 34.5132 23.2849 34.5503 23.3879C34.6204 23.5828 34.772 23.4771 34.9647 23.4377C34.9647 23.8505 34.9646 24.2364 34.9647 24.6224C34.9647 24.7307 34.9961 24.8248 35.1218 24.8242C35.2555 24.8235 35.2363 24.7101 35.2369 24.6251C35.2396 24.1793 35.2389 23.7335 35.2375 23.244ZM18.1198 12.965C17.8521 12.9142 17.7441 13.1477 17.5783 13.2743C17.4927 13.3396 17.4184 13.4299 17.5238 13.5403C17.6326 13.6541 17.691 13.5356 17.7646 13.4835C17.7879 13.467 17.82 13.463 17.8516 13.4521C17.912 13.581 17.8797 13.7038 17.8872 13.8224C17.8963 13.9679 17.8952 14.1142 17.9092 14.2591C17.917 14.3401 17.9699 14.3885 18.0598 14.3846C18.1362 14.3813 18.1909 14.3444 18.1895 14.2689C18.1814 13.8417 18.2442 13.4122 18.1198 12.965ZM30.3187 13.1798C30.3823 13.3155 30.5275 13.22 30.6212 13.2804C30.6971 13.5869 30.6691 13.8965 30.6785 14.2035C30.6814 14.298 30.6801 14.3861 30.8147 14.3808C30.9309 14.3762 30.94 14.2993 30.94 14.213C30.9401 13.8399 30.9397 13.4668 30.9393 13.0937C30.9392 13.0072 30.9229 12.9372 30.8202 12.9106C30.5925 12.8518 30.4238 12.9271 30.3187 13.1798ZM33.2888 13.4211C33.2709 13.2884 33.3457 13.1028 33.2208 13.0353C33.0731 12.9555 32.9753 13.1469 32.8522 13.2127C32.8031 13.239 32.7623 13.2815 32.7189 13.3179C32.5575 13.4534 32.5827 13.5549 32.7603 13.6269C32.8616 13.6157 32.8811 13.4665 33.0248 13.5314C33.0248 13.7449 33.0246 13.9703 33.0249 14.1957C33.025 14.2905 33.0343 14.3807 33.1608 14.3818C33.2919 14.3829 33.2925 14.288 33.2923 14.1955C33.2918 13.9522 33.2903 13.7089 33.2888 13.4211ZM32.4147 34.3896C32.483 34.3635 32.5572 34.4436 32.6503 34.3519C32.5405 34.2189 32.7217 34.078 32.6659 33.9164C32.5528 33.8917 32.5149 34.0231 32.4192 34.0137C32.3306 34.0049 32.2904 33.8452 32.1507 33.9464C32.3315 34.1146 32.1748 34.3051 32.1529 34.4834C32.276 34.508 32.3199 34.4339 32.4147 34.3896ZM16.3777 30.4024C16.3327 30.6252 16.4312 30.7701 16.6051 30.7327C16.7149 30.7091 16.7979 30.6463 16.8196 30.5311C16.8362 30.4429 16.7872 30.3746 16.7175 30.3276C16.5992 30.2481 16.4907 30.268 16.3777 30.4024Z" fill="#00152D"/>
<path d="M16.154 39.6013C15.6456 40.0617 15.646 40.0613 15.1613 39.6116C15.06 39.5177 14.9556 39.4271 14.8506 39.3373C14.8339 39.323 14.8065 39.3211 14.7828 39.313C14.6741 39.3778 14.7033 39.4842 14.7024 39.576C14.6994 39.8689 14.7016 40.1618 14.7034 40.4546C14.7051 40.7314 14.4991 40.6701 14.3378 40.6804C14.1741 40.6908 14.0869 40.6439 14.0883 40.4483C14.0942 39.6355 14.0421 38.8229 14.0775 38.0098C14.0796 37.963 14.0944 37.9167 14.1062 37.8553C14.2137 37.8622 14.2684 37.9361 14.3296 37.9936C14.6732 38.3169 15.015 38.6421 15.3579 38.9662C15.6406 39.2334 15.6542 39.2318 15.9631 38.9842C16.4836 38.5671 17.0113 38.1589 17.525 37.7338C17.7113 37.5796 17.8771 37.573 18.0745 37.6927C18.3942 37.8866 18.7183 38.0733 19.0419 38.2607C19.1413 38.3182 19.2098 38.391 19.1929 38.514C19.1326 38.952 19.1665 39.3905 19.1869 39.8288C19.1961 40.0269 19.1238 40.1584 18.9375 40.2552C18.6205 40.4199 18.316 40.6093 18.0113 40.7964C17.8877 40.8723 17.7778 40.8875 17.649 40.8118C17.2635 40.5851 16.8761 40.3615 16.4862 40.1425C16.3737 40.0793 16.3537 39.9814 16.3609 39.8739C16.3686 39.7591 16.3626 39.6477 16.336 39.5354C16.2573 39.4912 16.2197 39.565 16.154 39.6013Z" fill="#00152D"/>
<path d="M23.1514 40.4569C23.1115 40.8132 22.8447 40.6337 22.6876 40.6634C22.5288 40.6934 22.5467 40.5226 22.5444 40.4133C22.539 40.1531 22.5413 39.8926 22.5372 39.6323C22.536 39.554 22.5558 39.4687 22.473 39.3847C22.262 39.4972 22.1284 39.6963 21.962 39.855C21.7056 40.0996 21.7122 40.1019 21.4643 39.8573C21.3118 39.7069 21.1778 39.5315 20.9115 39.4039C20.9115 39.7333 20.9129 40.0132 20.9111 40.2931C20.9091 40.6324 20.7215 40.7597 20.4052 40.6423C20.3282 40.6137 20.3145 40.5532 20.3136 40.4873C20.3022 39.6497 20.2851 38.8121 20.3214 37.9747C20.3219 37.9623 20.3407 37.9506 20.3545 37.9343C20.4613 37.9202 20.5035 38.014 20.5628 38.0724C20.8986 38.4036 21.2362 38.7334 21.5624 39.074C21.6922 39.2095 21.7769 39.1925 21.8988 39.065C22.2248 38.7241 22.5626 38.3945 22.8961 38.0607C22.9467 38.0101 22.9866 37.9439 23.1309 37.9258C23.1628 38.7662 23.1492 39.6008 23.1514 40.4569Z" fill="#00152D"/>
<path d="M29.0825 38.4063C29.6109 39.3552 29.1983 40.3839 28.1987 40.611C27.8428 40.6919 27.4729 40.6907 27.1064 40.6752C26.9514 40.6687 26.8956 40.586 26.8958 40.4388C26.8971 39.609 26.8967 38.7793 26.8927 37.9495C26.8921 37.8101 26.9382 37.7361 27.0865 37.734C27.4686 37.7285 27.8496 37.7238 28.2248 37.8169C28.579 37.9048 28.8646 38.0896 29.0825 38.4063ZM27.5064 38.9904C27.5065 39.2174 27.5065 39.4444 27.5066 39.6713C27.5069 40.1486 27.5118 40.1527 27.9853 40.0695C28.4298 39.9913 28.7148 39.628 28.6952 39.1647C28.6777 38.7535 28.3163 38.383 27.8992 38.3485C27.5311 38.3181 27.508 38.3387 27.5069 38.699C27.5066 38.7801 27.5066 38.8612 27.5064 38.9904Z" fill="#00152D"/>
<path d="M31.2013 40.6827C30.9735 40.6819 30.7701 40.6833 30.5668 40.6794C30.438 40.6769 30.3532 40.6319 30.3532 40.4777C30.3533 39.6402 30.3511 38.8026 30.3415 37.9651C30.3394 37.7883 30.394 37.7218 30.5787 37.725C31.1317 37.7345 31.6851 37.7331 32.2382 37.7234C32.4344 37.7199 32.4997 37.7976 32.4859 37.9838C32.4737 38.1484 32.4996 38.3136 32.2414 38.3026C31.8841 38.2874 31.5251 38.3104 31.1678 38.2954C30.8908 38.2838 30.9309 38.4613 30.9228 38.6335C30.9139 38.8226 30.9651 38.9274 31.1798 38.9153C31.415 38.9019 31.6515 38.9121 31.8873 38.907C32.161 38.901 32.081 39.1017 32.0958 39.2511C32.1124 39.4181 32.0492 39.4851 31.8749 39.476C31.6315 39.4633 31.3868 39.4759 31.1429 39.4718C30.9931 39.4692 30.9103 39.5214 30.9247 39.6848C30.9311 39.7574 30.9288 39.8313 30.925 39.9043C30.9169 40.0581 30.9816 40.1252 31.1408 40.1216C31.5149 40.1133 31.8893 40.1206 32.2632 40.1105C32.4032 40.1067 32.5007 40.1401 32.4728 40.2932C32.4465 40.4377 32.5612 40.6739 32.2751 40.6805C31.9255 40.6886 31.5755 40.6826 31.2013 40.6827Z" fill="#00152D"/>
<path d="M36.4863 37.8194C36.1526 38.7623 35.7315 39.651 35.3717 40.5647C35.3307 40.6688 35.2573 40.6902 35.161 40.6884C35.0706 40.6867 34.9808 40.692 34.9374 40.5848C34.5683 39.6747 34.1724 38.7754 33.8378 37.8514C33.8305 37.8312 33.8413 37.8044 33.8448 37.7682C34.0053 37.6968 34.1756 37.732 34.3414 37.7358C34.4651 37.7386 34.488 37.8484 34.5222 37.9381C34.7044 38.4158 34.8852 38.8941 35.0669 39.3721C35.0891 39.4305 35.0993 39.4963 35.1787 39.5507C35.3842 39.0242 35.5862 38.5053 35.7893 37.9869C35.8985 37.7079 36.2108 37.6252 36.4863 37.8194Z" fill="#00152D"/>
<path d="M25.2912 39.6552C25.1808 39.6393 25.0752 39.677 25.0069 39.5811C25.2357 39.3232 25.2357 39.3232 25.1361 39.0676C25.2784 38.9775 25.4213 38.9824 25.5548 39.078C25.6598 39.1533 25.7131 39.263 25.6705 39.3957C25.6152 39.5679 25.5011 39.6655 25.2912 39.6552Z" fill="#00152D"/>
<path d="M24.3715 39.1249C24.4876 39.0099 24.6056 38.9878 24.7845 39.0615C24.5861 39.2024 24.3962 39.3523 24.6731 39.5553C24.5864 39.6766 24.5022 39.648 24.4355 39.581C24.3106 39.4555 24.2671 39.3075 24.3715 39.1249Z" fill="#00152D"/>
<path d="M29.7566 23.9687C29.7526 24.3169 29.8029 24.6408 29.7593 24.9666C29.7453 25.0711 29.708 25.1458 29.6338 25.218C28.2649 26.5507 26.8981 27.8856 25.5303 29.2196C25.4198 29.3273 25.296 29.423 25.1953 29.539C25.0667 29.6871 24.9763 29.6694 24.8406 29.5347C23.8372 28.5374 22.8262 27.5477 21.8165 26.5566C21.3639 26.1124 20.9095 25.67 20.4547 25.228C20.372 25.1476 20.2965 25.0718 20.2973 24.9408C20.3019 24.1927 20.3009 23.4446 20.3029 22.6966C20.303 22.6736 20.3159 22.6506 20.3224 22.6289C20.4158 22.5841 20.4581 22.6568 20.5076 22.706C21.9561 24.1433 23.4068 25.5782 24.8482 27.0226C25.0034 27.1781 25.0883 27.1742 25.2371 27.0248C26.5967 25.6596 27.9622 24.3003 29.3282 22.9414C29.4414 22.8287 29.5382 22.6938 29.7564 22.5938C29.7564 23.0667 29.7564 23.5059 29.7566 23.9687Z" fill="#00152D"/>
<path d="M17.9046 33.8105C17.8185 33.8015 17.7898 33.7523 17.7813 33.6933C17.7113 33.2107 17.4076 32.8961 17.0266 32.6358C17.0076 32.6229 16.9951 32.6004 16.9623 32.5622C17.1845 32.3305 17.4063 32.0989 17.6286 31.8678C17.916 31.569 18.2091 31.2756 18.4889 30.97C18.6115 30.8361 18.7067 30.8355 18.8327 30.9578C19.7539 31.8524 20.6779 32.7442 21.6009 33.637C21.6473 33.6819 21.6919 33.7283 21.6738 33.8117C20.4198 33.8117 19.1708 33.8117 17.9046 33.8105Z" fill="#00152D"/>
<path d="M16.2834 33.0029C16.7845 32.9818 17.1594 33.2454 17.2527 33.6655C17.3432 34.0735 17.1519 34.4549 16.7712 34.6254C16.317 34.8287 15.8015 34.6323 15.6097 34.1828C15.4238 33.7469 15.6422 33.2437 16.1 33.057C16.1524 33.0356 16.2087 33.0236 16.2834 33.0029Z" fill="#00152D"/>
<path d="M32.0312 32.292C31.3192 32.2919 30.6315 32.2919 29.9438 32.2919C29.9349 32.2719 29.9261 32.2519 29.9172 32.2318C30.4218 31.7398 30.9264 31.2477 31.4617 30.7256C31.5487 31.0013 31.4879 31.2276 31.5125 31.447C31.5236 31.5451 31.4448 31.7179 31.6247 31.7113C31.7875 31.7054 31.7317 31.5373 31.7349 31.4347C31.743 31.1749 31.7396 30.9147 31.7369 30.6546C31.7358 30.5524 31.7564 30.4635 31.8324 30.389C32.2208 30.0077 32.6076 29.6246 32.996 29.2433C33.0359 29.2041 33.0793 29.1643 33.1454 29.171C33.2254 29.2475 33.2108 29.3496 33.2112 29.4448C33.2146 30.2981 33.2103 31.1516 33.2216 32.0048C33.2245 32.2229 33.1635 32.3126 32.9331 32.2982C32.6416 32.2799 32.3482 32.2927 32.0312 32.292ZM32.6862 30.552C32.5391 30.4133 32.4288 30.5188 32.3355 30.6189C32.2288 30.7335 32.3162 30.802 32.4165 30.865C32.5183 30.9289 32.4759 31.0401 32.4878 31.1333C32.5113 31.3171 32.4323 31.5159 32.5916 31.6889C32.781 31.3389 32.7033 30.9592 32.6862 30.552Z" fill="#00152D"/>
<path d="M15.3635 14.1946C15.1265 14.0958 14.9983 13.9355 15.0434 13.6951C15.0833 13.4829 15.2228 13.3611 15.4555 13.3573C15.6947 13.3533 15.8381 13.4701 15.9062 13.6874C15.9954 13.9717 15.7452 14.2142 15.3635 14.1946Z" fill="#00152D"/>
<path d="M27.7699 13.2684C27.9965 13.1365 28.1939 13.1621 28.2985 13.3202C28.3971 13.4692 28.3517 13.7009 28.205 13.7977C28.0492 13.9005 27.8389 13.8647 27.7293 13.7103C27.6249 13.5633 27.6579 13.42 27.7699 13.2684Z" fill="#00152D"/>
<path d="M22.2671 14.1185C22.1303 14.1923 22.0277 14.1425 21.9411 14.0653C21.7723 13.915 21.7519 13.4684 21.9043 13.2996C21.9823 13.2132 22.0796 13.1503 22.2041 13.183C22.3401 13.2186 22.4364 13.3112 22.4609 13.4468C22.5053 13.6915 22.5059 13.9325 22.2671 14.1185Z" fill="#00152D"/>
<path d="M19.4739 13.6678C19.4771 13.6157 19.4787 13.5831 19.4864 13.5519C19.5344 13.3555 19.5967 13.1521 19.8506 13.1798C20.0831 13.2051 20.1559 13.3974 20.1791 13.6023C20.207 13.8496 20.0747 14.0957 19.8938 14.1374C19.7097 14.1798 19.601 14.0749 19.5332 13.9229C19.5009 13.8503 19.4937 13.7666 19.4739 13.6678Z" fill="#00152D"/>
<path d="M35.2398 21.465C35.2471 21.7805 35.1356 21.9772 34.967 21.9747C34.7757 21.972 34.6675 21.7572 34.6945 21.4618C34.7084 21.31 34.7809 21.2079 34.9246 21.195C35.0927 21.1798 35.1871 21.2929 35.2398 21.465Z" fill="#00152D"/>
<path d="M35.036 34.3247C34.7088 34.325 34.5254 34.1027 34.6428 33.8744C34.7072 33.7492 34.8088 33.6688 34.9554 33.6852C35.1062 33.702 35.2149 33.7907 35.2499 33.939C35.2909 34.1132 35.2056 34.2359 35.036 34.3247Z" fill="#00152D"/>
<path d="M30.9887 34.138C30.895 34.3261 30.7582 34.3892 30.5801 34.3259C30.4464 34.2784 30.3774 34.1726 30.3837 34.0252C30.3929 33.8112 30.5268 33.6735 30.7117 33.6885C30.9287 33.7062 31.0326 33.863 30.9887 34.138Z" fill="#00152D"/>
</svg>
