<svg width="1440" height="300" viewBox="0 0 1440 300" fill="none" xmlns="http://www.w3.org/2000/svg">
<path fill-rule="evenodd" clip-rule="evenodd" d="M0 83.5359L60 112.536C120 141.536 240 198.536 360 191.536C480 184.536 600 112.536 720 61.5359C840 11.5359 960 -17.4641 1080 11.5359C1200 40.5359 1320 126.536 1380 169.536L1440 213.536V299.536H1380C1320 299.536 1200 299.536 1080 299.536C960 299.536 840 299.536 720 299.536C600 299.536 480 299.536 360 299.536C240 299.536 120 299.536 60 299.536H0V83.5359Z" fill="#E5EDFF"/>
</svg>
